<svg width="50" height="50" viewBox="0 0 50 50" fill="none" xmlns="http://www.w3.org/2000/svg">
<circle cx="25" cy="25" r="25" fill="#FF5C00"/>
<circle cx="25" cy="25" r="22" fill="white"/>
<path d="M20.6667 34C19.6 34 18.5333 33.0667 18 32.6667C15.3333 30.8 14.5333 30.1334 14 29.7334V35.3334C14 36.0696 14.5971 36.6667 15.3333 36.6667H26C26.7362 36.6667 27.3333 36.0696 27.3333 35.3334V29.7334C26.8 30.1334 26 30.8 23.3333 32.6667C22.8 33.0667 21.7333 34 20.6667 34ZM26 26H15.3333C14.5971 26 14 26.5971 14 27.3334V28C15.0667 28.8 14.9333 28.8 18.8 31.6C19.2 31.8667 20 32.6667 20.6667 32.6667C21.3333 32.6667 22.1333 31.8667 22.5333 31.7334C26.4 28.9334 26.2667 28.9334 27.3333 28.1334V27.3334C27.3333 26.5971 26.7362 26 26 26ZM36.6667 22H23.3333C22.5971 22 22 22.5971 22 23.3334V24.6667H26C27.3837 24.6667 28.5246 25.7259 28.6546 27.0759L28.6667 27.0667V32.6667H36.6667C37.4029 32.6667 38 32.0696 38 31.3334V23.3334C38 22.5971 37.4029 22 36.6667 22ZM35.3333 27.3334H32.6667V24.6667H35.3333V27.3334ZM20.6667 23.3334C20.6667 21.863 21.8629 20.6667 23.3333 20.6667H32.6667V16.6667C32.6667 15.9305 32.0696 15.3334 31.3333 15.3334H18C17.2638 15.3334 16.6667 15.9305 16.6667 16.6667V24.6667H20.6667V23.3334Z" fill="#FF5C00"/>
</svg>
