<svg width="50" height="50" viewBox="0 0 50 50" fill="none" xmlns="http://www.w3.org/2000/svg">
<circle cx="25" cy="25" r="25" fill="#00940F"/>
<circle cx="25" cy="25" r="22" fill="white"/>
<path d="M22 22.75C22 21.9217 21.3283 21.25 20.5 21.25H19.75C18.093 21.25 16.75 22.593 16.75 24.25V26.5C16.75 28.157 18.093 29.5 19.75 29.5H20.5C21.3283 29.5 22 28.8283 22 28V22.75ZM30.25 29.5C31.907 29.5 33.25 28.157 33.25 26.5V24.25C33.25 22.593 31.907 21.25 30.25 21.25H29.5C28.6717 21.25 28 21.9217 28 22.75V28C28 28.8283 28.6717 29.5 29.5 29.5H30.25ZM25 13C18.3053 13 13.2147 18.5702 13 25V25.75C13 26.1644 13.3356 26.5 13.75 26.5H14.5C14.9144 26.5 15.25 26.1644 15.25 25.75V25C15.25 19.6239 19.6239 15.25 25 15.25C30.3761 15.25 34.75 19.6239 34.75 25H34.7444C34.7481 25.1139 34.75 32.7681 34.75 32.7681C34.75 33.8627 33.8627 34.75 32.7681 34.75H28C28 33.5073 26.9927 32.5 25.75 32.5H24.25C23.0073 32.5 22 33.5073 22 34.75C22 35.9927 23.0073 37 24.25 37H32.7681C35.1053 37 37 35.1053 37 32.7681V25C36.7853 18.5702 31.6947 13 25 13Z" fill="#038A29"/>
</svg>
