<svg width="50" height="50" viewBox="0 0 50 50" fill="none" xmlns="http://www.w3.org/2000/svg">
<circle cx="25" cy="25" r="25" fill="#FD0000"/>
<circle cx="25" cy="25" r="22" fill="white"/>
<path fillRule="evenodd" clipRule="evenodd" d="M36.9375 19.3437C36.2594 18.1375 35.5234 17.9156 34.025 17.8313C32.5281 17.7297 28.7641 17.6875 25.5031 17.6875C22.2359 17.6875 18.4703 17.7297 16.975 17.8297C15.4797 17.9156 14.7422 18.1359 14.0578 19.3437C13.3594 20.5484 13 22.6234 13 26.2766V26.2891C13 29.9266 13.3594 32.0172 14.0578 33.2094C14.7422 34.4156 15.4781 34.6344 16.9734 34.7359C18.4703 34.8234 22.2359 34.875 25.5031 34.875C28.7641 34.875 32.5281 34.8234 34.0266 34.7375C35.525 34.6359 36.2609 34.4172 36.9391 33.2109C37.6437 32.0188 38 29.9281 38 26.2906V26.2781C38 22.6234 37.6437 20.5484 36.9375 19.3437Z" fill="#FF1100"/>
<path fillRule="evenodd" clipRule="evenodd" d="M22.375 30.9688V21.5938L30.1875 26.2812L22.375 30.9688Z" fill="#FAFAFA"/>
</svg>
