<svg width="47" height="46" viewBox="0 0 47 46" fill="none" xmlns="http://www.w3.org/2000/svg">
<path d="M44.8812 42.7625H3.73754V1.61877C3.73754 0.741935 2.9956 0 2.11877 0C1.24194 0 0.5 0.741935 0.5 1.61877V44.3812C0.5 45.2581 1.24194 46 2.11877 46H44.8812C45.7581 46 46.5 45.2581 46.5 44.3812C46.5 43.5044 45.7581 42.7625 44.8812 42.7625Z" fill="white"/>
<path d="M19.4531 36.4897V13.1525C19.4531 12.2757 18.7111 11.5337 17.8343 11.5337C16.9575 11.5337 16.2155 12.2757 16.2155 13.1525V36.5572C16.2155 37.434 16.9575 38.176 17.8343 38.176C18.7111 38.176 19.4531 37.434 19.4531 36.4897ZM11.629 36.4897V13.1525C11.629 12.2757 10.8871 11.5337 10.0103 11.5337C9.13343 11.5337 8.3915 12.2757 8.3915 13.1525V36.5572C8.3915 37.434 9.13343 38.176 10.0103 38.176C10.8871 38.1085 11.629 37.434 11.629 36.4897ZM35.1686 36.4897V13.1525C35.1686 12.2757 34.4267 11.5337 33.5499 11.5337C32.673 11.5337 31.9311 12.2757 31.9311 13.1525V36.5572C31.9311 37.434 32.673 38.176 33.5499 38.176C34.4267 38.1085 35.1686 37.434 35.1686 36.4897ZM42.9927 36.4897V24.8211C42.9927 23.9443 42.2507 23.2023 41.3739 23.2023C40.4971 23.2023 39.7551 23.9443 39.7551 24.8211V36.4897C39.7551 37.3666 40.4971 38.1085 41.3739 38.1085C42.2507 38.1085 42.9927 37.434 42.9927 36.4897ZM27.2771 36.4897V24.8211C27.2771 23.9443 26.5352 23.2023 25.6584 23.2023C24.7815 23.2023 24.0396 23.9443 24.0396 24.8211V36.4897C24.0396 37.3666 24.7815 38.1085 25.6584 38.1085C26.5352 38.1085 27.2771 37.434 27.2771 36.4897Z" fill="white"/>
</svg>
