<svg width="53" height="45" viewBox="0 0 53 45" fill="none" xmlns="http://www.w3.org/2000/svg">
<path d="M22.2957 29.1502C22.2957 27.7094 21.7426 26.3793 20.7468 25.2709L13.8872 18.399C13.5553 18.0665 13.0021 17.9557 12.5596 18.0665C12.117 18.1773 11.6745 18.6207 11.5638 19.1749C11.3426 20.2833 10.7894 22.7217 11.3426 24.7167L11.4532 24.9384L13.8872 27.3769L13.1128 27.4877C12.0064 27.4877 11.0106 27.0443 10.2362 26.2685L7.35957 23.3867V16.6256C7.35957 14.6305 6.14255 12.8571 4.37234 12.0813C3.48723 11.7488 2.49149 11.5271 1.60638 11.5271H0.5V25.0493C0.5 26.1576 0.942553 27.1552 1.71702 27.931L9.68298 35.9113V36.2438H6.69574V44.6675H24.8404V36.2438H22.2957V29.1502ZM3.15532 26.4902C2.8234 26.1576 2.60213 25.7143 2.60213 25.1601V13.9655C2.8234 14.0764 3.15532 14.0764 3.3766 14.1872C4.37234 14.6305 5.03617 15.6281 5.03617 16.6256V24.3842L8.5766 27.931C9.79362 29.1502 11.4532 29.8153 13.1128 29.8153L15.8787 29.3719C16.3213 29.2611 16.7638 28.9286 16.8745 28.4852C16.9851 28.0419 16.8745 27.4877 16.5426 27.1552L13.2234 23.8301C13.0021 22.9434 13.1128 21.9458 13.2234 21.0591L18.9766 26.8227C19.6404 27.4877 19.9723 28.2635 19.9723 29.1502V36.4655H11.6745V36.133C11.6745 35.468 11.4532 34.9138 11.0106 34.4704L3.15532 26.4902ZM22.517 38.6823V42.6724H8.90851V38.6823H22.517ZM48.517 12.1921C46.7468 12.968 45.5298 14.7414 45.5298 16.7365V23.4975L42.6532 26.3793C41.8787 27.1552 40.883 27.5985 39.7766 27.5985L39.0021 27.4877L41.4362 25.0493L41.5468 24.8276C42.1 22.7217 41.6574 20.3941 41.3255 19.1749C41.2149 18.7315 40.883 18.2882 40.3298 18.1773C39.8872 18.0665 39.334 18.1773 39.0021 18.5099L32.1426 25.3818C31.1468 26.3793 30.5936 27.8202 30.5936 29.2611V36.5764H28.0489V45H46.1936V36.5764H43.317V36.133L51.283 28.1527C52.0574 27.3769 52.5 26.3793 52.5 25.2709V11.6379H51.3936C50.2872 11.6379 49.4021 11.8596 48.517 12.1921ZM43.8702 38.6823V42.6724H30.2617V38.6823H43.8702ZM50.1766 25.1601C50.1766 25.7143 49.9553 26.1576 49.6234 26.4902L41.6574 34.4704C41.2149 34.9138 40.9936 35.468 40.9936 36.133V36.4655H32.6957V29.1502C32.6957 28.2635 33.0277 27.4877 33.6915 26.8227L39.4447 21.0591C39.5553 21.9458 39.666 22.9434 39.4447 23.8301L36.1255 27.1552C35.7936 27.4877 35.683 28.0419 35.7936 28.4852C35.9043 28.9286 36.3468 29.2611 36.7894 29.3719L39.4447 29.8153H39.666C41.4362 29.8153 42.9851 29.1502 44.2021 27.931L47.7426 24.3842V16.7365C47.7426 15.6281 48.4064 14.6305 49.4021 14.298C49.6234 14.1872 49.9553 14.0764 50.1766 14.0764V25.1601ZM26.7213 0.110837C22.7383 -0.110838 19.4191 2.99261 19.1979 6.98276C19.0872 8.867 19.7511 10.7512 21.0787 12.1921C22.4064 13.633 24.1766 14.4089 26.0574 14.5197C26.1681 14.5197 26.2787 14.5197 26.3894 14.5197C30.1511 14.5197 33.3596 11.5271 33.5808 7.64778C33.8021 3.65764 30.7043 0.332512 26.7213 0.110837ZM26.1681 12.303C24.8404 12.1921 23.6234 11.6379 22.7383 10.6404C21.8532 9.64286 21.4106 8.42365 21.4106 7.0936C21.5213 4.4335 23.734 2.32759 26.3894 2.32759C26.5 2.32759 26.6106 2.32759 26.6106 2.32759C29.3766 2.43842 31.4787 4.76601 31.3681 7.53695C31.2574 10.3079 28.934 12.4138 26.1681 12.303Z" fill="white"/>
<path d="M31.7132 2.2482C31.7042 2.23914 31.6945 2.23083 31.6842 2.22337C31.0191 1.52653 30.2206 0.970983 29.3366 0.589849C28.4525 0.208715 27.5008 0.00980054 26.5383 0.0049673C26.5269 0.00259549 26.5154 0.000936502 26.5038 0C26.4961 0 26.4899 0.00372547 26.4825 0.0042222C25.5163 0.00615045 24.5605 0.203681 23.6724 0.584946C22.7844 0.966212 21.9824 1.52334 21.3148 2.22287C21.3043 2.23033 21.2944 2.23863 21.2853 2.24771C21.2823 2.25168 21.2816 2.2564 21.2788 2.26037C20.0138 3.59513 19.3085 5.36531 19.3085 7.2057C19.3085 9.04609 20.0138 10.8163 21.2788 12.151C21.2808 12.154 21.2813 12.1575 21.2833 12.1602C21.2853 12.1629 21.2954 12.1687 21.3009 12.1744C21.9706 12.88 22.7765 13.4419 23.6696 13.826C24.5628 14.2101 25.5246 14.4084 26.4966 14.4089C27.4686 14.4093 28.4305 14.2119 29.324 13.8287C30.2175 13.4454 31.024 12.8843 31.6944 12.1793C31.7021 12.1735 31.7095 12.1672 31.7164 12.1605C31.7187 12.1577 31.7189 12.1543 31.7209 12.1513C32.9861 10.8165 33.6915 9.04621 33.6915 7.2057C33.6915 5.36519 32.9861 3.5949 31.7209 2.26012C31.7167 2.25665 31.7162 2.25193 31.7132 2.2482ZM31.4851 11.6752C30.8699 11.2207 30.1937 10.8555 29.4765 10.5905C29.8873 9.59346 30.119 8.53152 30.1609 7.45369H33.1884C33.1319 9.01726 32.5291 10.5113 31.4851 11.6752ZM21.5142 11.6752C20.4699 10.5112 19.867 9.0168 19.8106 7.45295H22.842C22.8828 8.53121 23.1136 9.59376 23.5237 10.5915C22.8067 10.8572 22.1306 11.2225 21.5151 11.6766L21.5142 11.6752ZM21.5166 2.73401C22.1414 3.1971 22.83 3.56688 23.5609 3.83178C23.1353 4.82225 22.8917 5.88154 22.8418 6.9587H19.8103C19.8669 5.39363 20.4708 3.89826 21.5166 2.73401ZM26.752 13.7525V10.5652C27.4461 10.5847 28.1348 10.6932 28.8013 10.8881C28.3136 11.969 27.6171 12.9425 26.752 13.7525ZM26.2514 0.686482V3.8447C25.5673 3.82502 24.8884 3.71888 24.2309 3.52877C24.7237 2.46469 25.4087 1.50106 26.2514 0.686482ZM24.0246 3.98602C24.748 4.20252 25.4967 4.32252 26.2514 4.34292V6.9582H23.3422C23.3878 5.93422 23.6191 4.9271 24.0246 3.98602ZM26.2514 7.45493V10.0685C25.4878 10.0891 24.7302 10.211 23.9986 10.4308C23.604 9.48602 23.3816 8.47805 23.3419 7.45469L26.2514 7.45493ZM29.0039 10.4311C28.2729 10.2109 27.5159 10.0889 26.7528 10.0685V7.45493H29.6612C29.621 8.47831 29.3984 9.48623 29.0039 10.4311ZM26.752 6.9582V4.34292C27.5069 4.32194 28.2557 4.20127 28.9791 3.98403C29.3846 4.92577 29.6155 5.9336 29.6605 6.9582H26.752ZM26.752 3.84445V0.681763C27.5954 1.49701 28.2808 2.46151 28.7737 3.52654C28.1159 3.71714 27.4366 3.82395 26.752 3.84445ZM23.7635 3.37727C23.0862 3.13494 22.447 2.79689 21.8653 2.37338C22.9087 1.36658 24.2508 0.727138 25.689 0.551619C24.8951 1.38001 24.2444 2.33493 23.7635 3.37727ZM26.2514 10.5652V13.7502C25.3855 12.9419 24.6884 11.9694 24.2007 10.8891C24.8677 10.6942 25.5568 10.5853 26.2514 10.5652ZM29.2794 11.0473C29.941 11.2897 30.566 11.6227 31.1364 12.0368C30.105 13.0331 28.7809 13.6707 27.3598 13.8551C28.1615 13.0411 28.8115 12.0902 29.2794 11.0473ZM30.1611 6.9582C30.112 5.88027 29.8688 4.8201 29.4433 3.8288C30.1719 3.56406 30.8586 3.19533 31.4821 2.73401C32.5279 3.89826 33.1318 5.39363 33.1884 6.9587L30.1611 6.9582ZM31.1332 2.37338C30.553 2.79542 29.9159 3.13268 29.2409 3.37504C28.7609 2.33443 28.112 1.38076 27.3204 0.552861C28.7546 0.730335 30.0925 1.36917 31.1332 2.37338ZM21.8623 12.037C22.4338 11.623 23.0597 11.29 23.7221 11.0473C24.1893 12.0899 24.8384 13.0407 25.6389 13.8551C24.2178 13.6707 22.8937 13.0333 21.8623 12.037Z" fill="white"/>
</svg>
