<svg width="47" height="48" viewBox="0 0 47 48" fill="none" xmlns="http://www.w3.org/2000/svg">
<path d="M40.5355 8.12238C40.5062 8.09266 40.4745 8.06542 40.4407 8.04093C38.2673 5.75585 35.6582 3.93408 32.7692 2.68425C29.8802 1.43442 26.7704 0.782138 23.6252 0.766289C23.588 0.758511 23.5504 0.753071 23.5126 0.75C23.4875 0.75 23.4672 0.762217 23.4429 0.763846C20.2856 0.770169 17.1622 1.41792 14.2603 2.66817C11.3583 3.91843 8.73779 5.7454 6.55609 8.0393C6.52179 8.06376 6.48954 8.091 6.45966 8.12075C6.44994 8.13378 6.4475 8.14925 6.43859 8.16228C2.3047 12.5392 0 18.3441 0 24.3792C0 30.4142 2.3047 36.2191 6.43859 40.596C6.44507 40.6058 6.44669 40.6172 6.45318 40.6261C6.45966 40.6351 6.49288 40.6538 6.51071 40.6726C8.69916 42.9863 11.3326 44.829 14.2512 46.0886C17.1698 47.3482 20.3126 47.9985 23.4888 48C26.6651 48.0015 29.8085 47.3542 32.7283 46.0974C35.6481 44.8406 38.2833 43.0005 40.4739 40.6889C40.4993 40.6698 40.5233 40.6491 40.5461 40.627C40.5533 40.618 40.5542 40.6066 40.5606 40.5968C44.695 36.2198 47 30.4146 47 24.3792C47 18.3437 44.695 12.5385 40.5606 8.16147C40.5469 8.15007 40.5452 8.13459 40.5355 8.12238ZM39.79 39.0355C37.7798 37.5452 35.5701 36.3478 33.2265 35.4788C34.569 32.2092 35.3261 28.7268 35.463 25.1924H45.356C45.1715 30.3197 43.2016 35.219 39.79 39.0355ZM7.20757 39.0355C3.79519 35.2185 1.82494 30.3182 1.64076 25.1899H11.5468C11.6799 28.7258 12.4341 32.2102 13.7743 35.4821C11.4314 36.3533 9.22197 37.5511 7.21081 39.0404L7.20757 39.0355ZM7.21568 9.71544C9.25733 11.234 11.5075 12.4466 13.8959 13.3153C12.5051 16.5633 11.709 20.0369 11.546 23.5692H1.63995C1.82471 18.437 3.7983 13.5333 7.21568 9.71544ZM24.3237 45.8476V35.3958C26.5917 35.4596 28.8422 35.8154 31.0201 36.4546C29.4265 39.999 27.1507 43.1914 24.3237 45.8476ZM22.6877 3.00113V13.3576C20.4523 13.2931 18.2339 12.9451 16.0853 12.3217C17.6956 8.8323 19.9341 5.67232 22.6877 3.00113ZM15.4111 13.8211C17.7749 14.531 20.2215 14.9245 22.6877 14.9914V23.5676H13.1812C13.3303 20.2097 14.0859 16.9071 15.4111 13.8211ZM22.6877 25.1964V33.7669C20.1924 33.8345 17.717 34.2341 15.326 34.9552C14.0368 31.8568 13.3101 28.5515 13.1803 25.1956L22.6877 25.1964ZM31.6821 34.956C29.2933 34.2338 26.8197 33.8339 24.3261 33.7669V25.1964H33.8302C33.6988 28.5523 32.9713 31.8575 31.6821 34.956ZM24.3237 23.5676V14.9914C26.7904 14.9226 29.2374 14.5269 31.6011 13.8145C32.9262 16.9027 33.6808 20.2076 33.8278 23.5676H24.3237ZM24.3237 13.3568V2.98566C27.0794 5.65905 29.3193 8.82184 30.9301 12.3143C28.7803 12.9393 26.5607 13.2896 24.3237 13.3568ZM14.5579 11.8249C12.3447 11.0302 10.256 9.92163 8.35497 8.53286C11.7645 5.23132 16.1503 3.13445 20.8499 2.55889C18.2557 5.27536 16.1293 8.40678 14.5579 11.8249ZM22.6877 35.3958V45.8402C19.858 43.1895 17.5802 40.0003 15.9864 36.4578C18.1661 35.8187 20.4181 35.4618 22.6877 35.3958ZM32.5824 36.9766C34.7445 37.7715 36.7867 38.8634 38.6507 40.2214C35.2804 43.4887 30.9535 45.5792 26.3098 46.1839C28.9294 43.5147 31.0536 40.3966 32.5824 36.9766ZM35.4638 23.5676C35.3033 20.0328 34.5086 16.5562 33.118 13.3055C35.4991 12.4374 37.743 11.2282 39.7803 9.71544C43.1977 13.5333 45.1713 18.437 45.356 23.5692L35.4638 23.5676ZM38.6402 8.53286C36.7444 9.91682 34.6624 11.0228 32.4568 11.8175C30.8883 8.40513 28.7675 5.27784 26.1809 2.56296C30.8675 3.14494 35.2395 5.23982 38.6402 8.53286ZM8.34525 40.2222C10.2129 38.8646 12.2579 37.7724 14.4226 36.9766C15.9494 40.3955 18.0705 43.5134 20.6862 46.1839C16.0426 45.5794 11.7157 43.4892 8.34525 40.2222Z" fill="white"/>
<path d="M23.5 0C17.2696 0.00700346 11.2963 2.49831 6.89069 6.92734C2.48509 11.3564 0.00696641 17.3614 0 23.625C0.0104391 29.8875 2.48968 35.8905 6.89452 40.3188C11.2994 44.7471 17.2706 47.2395 23.5 47.25C29.7326 47.25 35.7099 44.7609 40.117 40.3304C44.5241 35.8999 47 29.8907 47 23.625C47 17.3593 44.5241 11.3501 40.117 6.9196C35.7099 2.48906 29.7326 0 23.5 0ZM37.7936 37.2576C36.4738 34.5813 34.4364 32.3292 31.9111 30.7551C29.3858 29.1811 26.4732 28.3479 23.5019 28.3495C20.5306 28.351 17.6189 29.1873 15.0953 30.764C12.5716 32.3407 10.5365 34.5951 9.21952 37.2727C5.70564 33.6089 3.74767 28.7144 3.76 23.625C3.76 18.3618 5.83974 13.3141 9.54171 9.59247C13.2437 5.87081 18.2646 3.78 23.5 3.78C28.7354 3.78 33.7563 5.87081 37.4583 9.59247C41.1603 13.3141 43.24 18.3618 43.24 23.625C43.2518 28.7073 41.2989 33.5954 37.7936 37.2576ZM23.5 9.45C21.8268 9.45 20.1911 9.94881 18.7999 10.8834C17.4086 11.8179 16.3243 13.1462 15.684 14.7003C15.0437 16.2544 14.8761 17.9644 15.2026 19.6142C15.529 21.2641 16.3347 22.7795 17.5179 23.9689C18.701 25.1584 20.2085 25.9684 21.8495 26.2966C23.4906 26.6247 25.1916 26.4563 26.7375 25.8126C28.2834 25.1689 29.6046 24.0788 30.5342 22.6801C31.4638 21.2815 31.96 19.6371 31.96 17.955C31.96 16.8381 31.7412 15.7322 31.316 14.7003C30.8909 13.6684 30.2677 12.7308 29.4821 11.9411C28.6965 11.1513 27.7639 10.5248 26.7375 10.0974C25.7111 9.66999 24.611 9.45 23.5 9.45Z" fill="white"/>
</svg>
