<svg width="49" height="49" viewBox="0 0 49 49" fill="none" xmlns="http://www.w3.org/2000/svg">
<path d="M45.9375 33.7695V31.396C45.9375 31.3855 45.932 31.377 45.9316 31.3667C46.4071 31.0131 46.7936 30.5537 47.0604 30.0247C47.3273 29.4958 47.4671 28.9119 47.4687 28.3195V22.292C47.4689 21.9788 47.4048 21.6688 47.2806 21.3812C47.1563 21.0936 46.9745 20.8345 46.7463 20.6198C46.5181 20.4051 46.2483 20.2394 45.9536 20.1328C45.659 20.0263 45.3456 19.9812 45.0328 20.0003L41.4948 20.2141C41.3827 20.2253 41.2697 20.2096 41.165 20.1683C41.0603 20.1269 40.967 20.0612 40.8929 19.9764L39.6039 18.6101C39.4988 18.4984 39.3625 18.4209 39.2128 18.3876C39.0631 18.3542 38.9068 18.3667 38.7642 18.4232C38.6217 18.4798 38.4994 18.5779 38.4133 18.7047C38.3271 18.8316 38.2811 18.9815 38.2812 19.1348V28.3195C38.2829 28.9119 38.4227 29.4958 38.6895 30.0247C38.9563 30.5537 39.3429 31.0131 39.8184 31.3667C39.818 31.3769 39.8125 31.3855 39.8125 31.396V34.1647C39.6182 34.2704 39.4336 34.3929 39.2607 34.5308L34.566 38.286H32.9292L32.9219 38.2845L32.9145 38.286H30.6219C30.0835 38.2826 29.5538 38.4222 29.087 38.6905C28.6202 38.9588 28.2331 39.3463 27.9652 39.8133C27.6974 40.2802 27.5584 40.8099 27.5625 41.3482C27.5665 41.8865 27.7136 42.414 27.9885 42.8769H21.0114C21.2835 42.4136 21.4283 41.8867 21.4311 41.3495C21.4338 40.8123 21.2946 40.284 21.0273 39.8179C20.76 39.3519 20.3743 38.9647 19.9092 38.6957C19.4441 38.4267 18.9161 38.2854 18.3787 38.286H16.0855L16.0781 38.2845L16.0707 38.286H14.434L9.73928 34.5323C9.56647 34.394 9.38183 34.2712 9.1875 34.1653V31.396C9.1875 31.3855 9.18198 31.377 9.1816 31.3667C9.65711 31.0131 10.0436 30.5537 10.3105 30.0247C10.5773 29.4958 10.7171 28.9119 10.7187 28.3195V19.1348C10.7188 18.9815 10.6728 18.8316 10.5867 18.7047C10.5006 18.5779 10.3783 18.4798 10.2357 18.4232C10.0932 18.3667 9.93689 18.3542 9.78717 18.3875C9.63745 18.4209 9.5012 18.4984 9.3961 18.6101L8.10709 19.9764C8.03141 20.0595 7.93767 20.1242 7.83308 20.1654C7.72848 20.2066 7.61583 20.2233 7.50378 20.2141L3.96725 20.0003C3.65447 19.9812 3.34107 20.0263 3.04638 20.1328C2.75168 20.2393 2.48191 20.4051 2.2537 20.6198C2.02549 20.8344 1.84366 21.0936 1.71941 21.3812C1.59516 21.6688 1.53113 21.9788 1.53125 22.292V28.3195C1.53291 28.9119 1.6727 29.4958 1.93953 30.0247C2.20636 30.5537 2.59288 31.0131 3.06839 31.3667C3.06801 31.3769 3.0625 31.3855 3.0625 31.396V33.7695C2.19846 33.947 1.42205 34.4168 0.864178 35.0998C0.306302 35.7829 0.00108877 36.6373 1.28939e-07 37.5191V48.2346C-5.82465e-05 48.3351 0.0197054 48.4347 0.0581609 48.5276C0.0966165 48.6205 0.15301 48.7049 0.224116 48.7759C0.295223 48.847 0.379648 48.9034 0.472564 48.9419C0.56548 48.9803 0.665065 49.0001 0.765625 49H40.4989C40.5114 49 40.5231 48.9921 40.5356 48.9914C40.5505 48.9922 40.563 49 40.5781 49H48.2344C48.3349 49.0001 48.4345 48.9803 48.5274 48.9419C48.6203 48.9034 48.7048 48.847 48.7759 48.7759C48.847 48.7049 48.9034 48.6205 48.9418 48.5276C48.9803 48.4347 49.0001 48.3351 49 48.2346V37.5191C48.9989 36.6373 48.6937 35.7829 48.1358 35.0998C47.5779 34.4168 46.8015 33.9469 45.9375 33.7695ZM39.8125 21.0617C40.0416 21.2971 40.3191 21.4798 40.6259 21.5972C40.9326 21.7147 41.2612 21.7641 41.589 21.7419L45.1255 21.5281C45.2299 21.5201 45.3348 21.5343 45.4333 21.5699C45.5318 21.6054 45.6215 21.6615 45.6967 21.7344C45.7731 21.8057 45.834 21.8921 45.8754 21.9881C45.9169 22.084 45.938 22.1875 45.9375 22.292V26.0233H45.1719C44.9689 26.0231 44.7743 25.9423 44.6308 25.7988C44.4872 25.6554 44.4065 25.4608 44.4062 25.2579C44.4056 24.6491 44.1634 24.0655 43.7328 23.635C43.3022 23.2045 42.7183 22.9624 42.1094 22.9617H39.8125V21.0617ZM39.8125 28.3195V24.4925H42.1094C42.3123 24.4928 42.5069 24.5735 42.6504 24.717C42.794 24.8605 42.8747 25.055 42.875 25.2579C42.8756 25.8667 43.1179 26.4504 43.5485 26.8808C43.9791 27.3113 44.5629 27.5534 45.1719 27.5541H45.9375V28.3195C45.9368 28.9283 45.6946 29.5119 45.264 29.9424C44.8334 30.3729 44.2496 30.615 43.6406 30.6157H42.1094C41.5004 30.615 40.9166 30.3729 40.486 29.9424C40.0554 29.5119 39.8131 28.9283 39.8125 28.3195ZM44.4062 32.0691V33.6922H41.6525C41.5487 33.6922 41.4468 33.7101 41.3437 33.7185V32.0691C41.5957 32.1205 41.8522 32.1464 42.1094 32.1464H43.6406C43.8978 32.1464 44.1543 32.1205 44.4062 32.0691ZM29.5424 40.2638C29.684 40.1216 29.8524 40.0089 30.0378 39.9322C30.2233 39.8554 30.4221 39.8162 30.6228 39.8168H32.1562V42.8768H30.625C30.3221 42.8768 30.0261 42.7871 29.7743 42.6189C29.5225 42.4507 29.3262 42.2116 29.2104 41.9319C29.0945 41.6522 29.0642 41.3444 29.1233 41.0475C29.1824 40.7506 29.3282 40.4778 29.5424 40.2638ZM16.8437 39.8168H18.3781C18.7828 39.819 19.1702 39.9813 19.4555 40.2684C19.7408 40.5554 19.9008 40.9437 19.9004 41.3483C19.8999 41.753 19.7392 42.141 19.4534 42.4274C19.1675 42.7139 18.7797 42.8755 18.375 42.8768H16.8437V39.8168ZM3.0625 23.7271V22.292C3.06198 22.1875 3.0831 22.084 3.12454 21.9881C3.16597 21.8921 3.22682 21.8057 3.30326 21.7344C3.37859 21.6618 3.4684 21.6059 3.56682 21.5704C3.66524 21.5348 3.77005 21.5204 3.87441 21.5281L7.40944 21.7419C7.73734 21.7633 8.06598 21.7136 8.37288 21.5962C8.67977 21.4788 8.95765 21.2965 9.1875 21.0617V22.9617H6.89062C6.28166 22.9624 5.69782 23.2045 5.26722 23.635C4.83662 24.0655 4.59441 24.6491 4.59375 25.2579C4.59348 25.4608 4.51274 25.6554 4.36921 25.7988C4.22569 25.9423 4.0311 26.0231 3.82812 26.0233H3.0625V23.7271ZM3.0625 28.3195V27.5541H3.82812C4.43709 27.5534 5.02092 27.3113 5.45152 26.8808C5.88213 26.4504 6.12433 25.8667 6.125 25.2579C6.12526 25.055 6.20601 24.8605 6.34953 24.717C6.49306 24.5735 6.68765 24.4928 6.89062 24.4925H9.1875V28.3195C9.18683 28.9283 8.94463 29.5119 8.51402 29.9424C8.08342 30.3729 7.49959 30.615 6.89062 30.6157H5.35937C4.75041 30.615 4.16658 30.3729 3.73597 29.9424C3.30537 29.5119 3.06316 28.9283 3.0625 28.3195ZM7.65625 32.0691V33.7186C7.55316 33.7102 7.45129 33.6922 7.34746 33.6922H4.59375V32.0691C4.84571 32.1205 5.10221 32.1464 5.35937 32.1464H6.89062C7.14778 32.1464 7.40429 32.1205 7.65625 32.0691ZM7.65625 43.6423V47.4692H1.53125V37.5191C1.53191 36.9103 1.77412 36.3267 2.20472 35.8962C2.63533 35.4657 3.21916 35.2236 3.82812 35.2229H7.34746C7.86897 35.2237 8.37481 35.4013 8.78224 35.7267L13.687 39.6494C13.8231 39.7575 13.9917 39.8165 14.1655 39.8168H15.3125V42.8768H13.2706L7.34969 38.437C7.18702 38.3164 6.98317 38.265 6.78273 38.2943C6.5823 38.3235 6.40162 38.4309 6.28021 38.593C6.15881 38.7551 6.10657 38.9587 6.13493 39.1592C6.16329 39.3596 6.26994 39.5408 6.43154 39.6628L10.7183 42.8769H8.42187C8.32131 42.8768 8.22173 42.8966 8.12881 42.935C8.03589 42.9735 7.95147 43.0298 7.88036 43.1009C7.80926 43.172 7.75286 43.2564 7.71441 43.3493C7.67595 43.4422 7.65619 43.5417 7.65625 43.6423V43.6423ZM39.8125 47.4692H9.1875V44.4076H39.8125V47.4692ZM47.4687 47.4692H41.3437V43.6423C41.3438 43.5417 41.324 43.4422 41.2856 43.3493C41.2471 43.2564 41.1907 43.172 41.1196 43.1009C41.0485 43.0298 40.9641 42.9735 40.8712 42.935C40.7783 42.8966 40.6787 42.8768 40.5781 42.8769H38.2817L42.5684 39.6628C42.73 39.5407 42.8367 39.3596 42.8651 39.1591C42.8934 38.9586 42.8412 38.7551 42.7198 38.593C42.5984 38.4309 42.4177 38.3235 42.2172 38.2943C42.0168 38.265 41.813 38.3163 41.6503 38.437L35.7294 42.8769H33.6875V39.8168H34.8344C35.0082 39.8165 35.1768 39.7575 35.3129 39.6494L40.2177 35.7253C40.6256 35.4009 41.1312 35.2239 41.6525 35.223H45.1719C45.7808 35.2237 46.3647 35.4658 46.7953 35.8963C47.2259 36.3267 47.4681 36.9104 47.4687 37.5192V47.4692ZM46.7031 7.65392H40.5781C39.9691 7.65458 39.3853 7.89672 38.9547 8.32719C38.5241 8.75766 38.2819 9.34132 38.2812 9.95009V13.0117C38.2819 13.6204 38.5241 14.2041 38.9547 14.6346C39.3853 15.065 39.9691 15.3072 40.5781 15.3078H41.2323L43.1987 16.6981C43.3279 16.7895 43.4823 16.8386 43.6406 16.8386C43.7989 16.8386 43.9533 16.7895 44.0825 16.6981L46.0489 15.3078H46.7031C47.3121 15.3072 47.8959 15.065 48.3265 14.6346C48.7571 14.2041 48.9993 13.6204 49 13.0117V9.95009C48.9993 9.34132 48.7571 8.75766 48.3265 8.32719C47.8959 7.89672 47.3121 7.65458 46.7031 7.65392ZM47.4687 13.0117C47.4685 13.2146 47.3877 13.4091 47.2442 13.5526C47.1007 13.6961 46.9061 13.7768 46.7031 13.7771H45.8059C45.6476 13.7772 45.4933 13.8262 45.364 13.9176L43.6406 15.1359L41.9172 13.9176C41.788 13.8262 41.6336 13.7772 41.4753 13.7771H40.5781C40.3751 13.7768 40.1805 13.6961 40.037 13.5526C39.8935 13.4091 39.8127 13.2146 39.8125 13.0117V9.95009C39.8127 9.74718 39.8935 9.55265 40.037 9.40917C40.1805 9.26569 40.3751 9.18497 40.5781 9.1847H46.7031C46.9061 9.18497 47.1007 9.26569 47.2442 9.40917C47.3877 9.55265 47.4685 9.74718 47.4687 9.95009V13.0117ZM44.4062 10.7155H42.875C42.6719 10.7155 42.4772 10.7961 42.3336 10.9397C42.19 11.0832 42.1094 11.2779 42.1094 11.4809C42.1094 11.6839 42.19 11.8786 42.3336 12.0221C42.4772 12.1656 42.6719 12.2463 42.875 12.2463H44.4062C44.6093 12.2463 44.804 12.1656 44.9476 12.0221C45.0912 11.8786 45.1719 11.6839 45.1719 11.4809C45.1719 11.2779 45.0912 11.0832 44.9476 10.9397C44.804 10.7961 44.6093 10.7155 44.4062 10.7155ZM2.29687 15.3078H2.9511L4.9175 16.6981C5.0467 16.7895 5.20109 16.8386 5.35938 16.8386C5.51767 16.8386 5.67206 16.7895 5.80126 16.6981L7.76765 15.3078H8.42187C9.03084 15.3072 9.61467 15.065 10.0453 14.6346C10.4759 14.2041 10.7181 13.6204 10.7187 13.0117V9.95009C10.7181 9.34132 10.4759 8.75766 10.0453 8.32719C9.61467 7.89672 9.03084 7.65458 8.42187 7.65392H2.29687C1.68791 7.65458 1.10408 7.89672 0.673473 8.32719C0.24287 8.75766 0.000664841 9.34132 1.28939e-07 9.95009V13.0117C0.000664841 13.6204 0.24287 14.2041 0.673473 14.6346C1.10408 15.065 1.68791 15.3072 2.29687 15.3078ZM1.53125 9.95009C1.53151 9.74718 1.61226 9.55265 1.75579 9.40917C1.89931 9.26569 2.0939 9.18497 2.29687 9.1847H8.42187C8.62485 9.18497 8.81943 9.26569 8.96296 9.40917C9.10648 9.55265 9.18723 9.74718 9.1875 9.95009V13.0117C9.18723 13.2146 9.10648 13.4091 8.96296 13.5526C8.81943 13.6961 8.62485 13.7768 8.42187 13.7771H7.52465C7.36638 13.7772 7.21202 13.8262 7.08278 13.9176L5.35937 15.1359L3.63597 13.9176C3.50673 13.8262 3.35237 13.7772 3.19409 13.7771H2.29687C2.0939 13.7768 1.89931 13.6961 1.75579 13.5526C1.61226 13.4091 1.53151 13.2146 1.53125 13.0117V9.95009ZM4.59375 12.2463H6.125C6.32805 12.2463 6.52279 12.1656 6.66638 12.0221C6.80996 11.8786 6.89062 11.6839 6.89062 11.4809C6.89062 11.2779 6.80996 11.0832 6.66638 10.9397C6.52279 10.7961 6.32805 10.7155 6.125 10.7155H4.59375C4.39069 10.7155 4.19595 10.7961 4.05237 10.9397C3.90879 11.0832 3.82812 11.2779 3.82812 11.4809C3.82812 11.6839 3.90879 11.8786 4.05237 12.0221C4.19595 12.1656 4.39069 12.2463 4.59375 12.2463ZM24.1762 14.5245C24.273 14.5369 24.3703 14.5434 24.4678 14.5439C24.9769 14.5442 25.4714 14.3736 25.872 14.0596C26.2048 13.7858 26.4518 13.422 26.5832 13.0117H27.9147C28.1177 13.0117 28.3125 12.931 28.4561 12.7875C28.5996 12.6439 28.6803 12.4493 28.6803 12.2463C28.6803 12.0433 28.5996 11.8486 28.4561 11.7051C28.3125 11.5615 28.1177 11.4809 27.9147 11.4809H26.6189C26.5105 11.1584 26.3293 10.8652 26.0893 10.624C25.8493 10.3828 25.557 10.2 25.235 10.0899V8.03662C25.235 7.83362 25.1543 7.63894 25.0107 7.4954C24.8672 7.35186 24.6724 7.27122 24.4694 7.27122C24.2663 7.27122 24.0716 7.35186 23.928 7.4954C23.7844 7.63894 23.7037 7.83362 23.7037 8.03662V10.0903C23.47 10.1684 23.2505 10.2842 23.054 10.4329C22.6953 10.7115 22.4272 11.0902 22.2838 11.521C22.1403 11.9519 22.1278 12.4156 22.2479 12.8535C22.3681 13.2914 22.6154 13.6839 22.9586 13.9814C23.3018 14.2788 23.7256 14.4678 24.1763 14.5245H24.1762ZM23.9931 11.6408C24.1537 11.5168 24.357 11.4615 24.5584 11.487C24.7598 11.5125 24.9428 11.6167 25.0675 11.7769H25.0682C25.1927 11.9374 25.2483 12.1408 25.2229 12.3423C25.1976 12.5438 25.0933 12.727 24.9329 12.8517C24.8544 12.9149 24.7636 12.9613 24.6664 12.9878C24.5691 13.0143 24.4674 13.0204 24.3676 13.0057C24.2173 12.9867 24.076 12.9236 23.9616 12.8244C23.8471 12.7252 23.7646 12.5943 23.7246 12.4483C23.6845 12.3022 23.6886 12.1476 23.7364 12.0039C23.7842 11.8602 23.8735 11.7338 23.9931 11.6408V11.6408ZM24.5 24.4925C26.9228 24.4925 29.2912 23.7743 31.3057 22.4287C33.3202 21.083 34.8903 19.1704 35.8175 16.9327C36.7447 14.695 36.9873 12.2327 36.5146 9.85714C36.0419 7.4816 34.8752 5.29952 33.162 3.58685C31.4489 1.87418 29.2661 0.707839 26.8898 0.235314C24.5136 -0.237211 22.0505 0.00530607 19.8121 0.932197C17.5737 1.85909 15.6605 3.42872 14.3145 5.44261C12.9684 7.4565 12.25 9.82419 12.25 12.2463C12.2537 15.493 13.5455 18.6058 15.842 20.9016C18.1386 23.1974 21.2522 24.4888 24.5 24.4925ZM24.5 1.53079C26.62 1.53079 28.6923 2.15924 30.455 3.33667C32.2177 4.5141 33.5915 6.18763 34.4028 8.14563C35.2141 10.1036 35.4264 12.2582 35.0128 14.3368C34.5992 16.4154 33.5783 18.3247 32.0793 19.8233C30.5802 21.3218 28.6703 22.3424 26.5911 22.7559C24.5119 23.1693 22.3567 22.9571 20.3981 22.1461C18.4395 21.3351 16.7655 19.9616 15.5877 18.1995C14.4099 16.4373 13.7812 14.3656 13.7812 12.2463C13.7846 9.40536 14.9149 6.68176 16.9244 4.67294C18.9338 2.66412 21.6582 1.5341 24.5 1.53079ZM24.4633 21.431C26.2805 21.431 28.0568 20.8923 29.5676 19.8831C31.0785 18.8738 32.2561 17.4394 32.9515 15.7611C33.6469 14.0828 33.8288 12.2361 33.4743 10.4544C33.1198 8.67277 32.2448 7.03621 30.9599 5.75171C29.675 4.4672 28.0379 3.59245 26.2557 3.23805C24.4735 2.88366 22.6262 3.06555 20.9474 3.76071C19.2687 4.45588 17.8338 5.63311 16.8242 7.14352C15.8147 8.65394 15.2759 10.4297 15.2759 12.2463C15.2785 14.6814 16.2473 17.016 17.9697 18.7379C19.6922 20.4598 22.0275 21.4283 24.4633 21.431ZM24.4633 4.59235C25.9776 4.59235 27.4579 5.04125 28.7169 5.88227C29.976 6.72329 30.9573 7.91867 31.5368 9.31724C32.1163 10.7158 32.2679 12.2548 31.9725 13.7395C31.6771 15.2242 30.9479 16.588 29.8771 17.6584C28.8064 18.7288 27.4422 19.4578 25.957 19.7531C24.4718 20.0484 22.9324 19.8969 21.5334 19.3176C20.1344 18.7383 18.9387 17.7572 18.0974 16.4986C17.2561 15.2399 16.8071 13.7601 16.8071 12.2463C16.8095 10.2171 17.6169 8.27164 19.0522 6.83677C20.4875 5.4019 22.4335 4.59474 24.4633 4.59235Z" fill="white"/>
</svg>
